<?xml version="1.0" standalone="no"?>
<!DOCTYPE svg PUBLIC "-//W3C//DTD SVG 20010904//EN"
 "http://www.w3.org/TR/2001/REC-SVG-20010904/DTD/svg10.dtd">
<svg version="1.0" xmlns="http://www.w3.org/2000/svg"
 width="1084.000000pt" height="1084.000000pt" viewBox="0 0 1084.000000 1084.000000"
 preserveAspectRatio="xMidYMid meet">
<metadata>
Created by potrace 1.11, written by Peter Selinger 2001-2013
</metadata>
<g transform="translate(0.000000,1084.000000) scale(0.100000,-0.100000)"
fill="#000000" stroke="none">
<path d="M5045 10380 c-668 -54 -1267 -221 -1855 -516 -979 -492 -1745 -1263
-2230 -2246 -292 -590 -454 -1192 -501 -1863 -22 -313 -2 -785 47 -1095 235
-1503 1141 -2811 2469 -3565 615 -349 1311 -563 2040 -625 155 -13 645 -13
800 0 508 43 976 152 1430 332 181 72 468 209 458 218 -5 4 -44 13 -88 20 -44
7 -142 27 -217 46 -496 122 -964 362 -1395 718 -133 110 -420 396 -532 531
-515 618 -910 1386 -1177 2289 -41 138 -67 186 -117 209 -47 22 -85 21 -153
-4 -199 -75 -494 -363 -972 -952 -203 -251 -471 -322 -732 -194 -96 47 -233
186 -287 292 -65 127 -87 212 -88 335 0 120 14 185 60 285 64 140 173 253 332
346 166 98 374 167 827 274 529 125 589 145 710 245 244 198 294 370 167 568
-99 153 -297 300 -526 390 -183 73 -347 110 -740 167 -375 55 -476 79 -597
142 -161 84 -278 278 -278 463 0 335 342 665 735 709 213 25 452 -48 655 -200
92 -68 241 -223 295 -304 141 -216 545 -506 791 -569 298 -76 545 110 651 489
26 94 28 111 27 280 -2 220 -26 404 -121 912 -56 304 -67 376 -67 474 -1 114
-1 116 37 191 46 93 109 154 214 204 297 143 779 70 1026 -156 105 -96 162
-210 173 -345 10 -116 -13 -194 -125 -425 -55 -113 -120 -260 -145 -327 -122
-323 -198 -683 -180 -848 22 -207 159 -375 353 -435 139 -44 262 -19 493 98
147 74 441 248 502 296 21 17 109 112 196 211 322 369 446 461 664 500 171 29
320 13 456 -52 150 -71 275 -233 326 -423 28 -101 25 -311 -4 -414 -34 -118
-95 -227 -168 -301 -119 -121 -199 -142 -659 -170 -638 -38 -910 -110 -1158
-303 -95 -75 -147 -175 -147 -286 0 -73 31 -130 94 -171 114 -76 274 -115 756
-186 691 -101 941 -179 1106 -345 142 -142 184 -311 121 -484 -70 -192 -246
-338 -482 -401 -60 -16 -110 -22 -200 -22 -138 0 -196 12 -334 72 -191 82
-313 162 -718 468 -81 62 -186 132 -232 155 -77 39 -90 43 -160 43 -95 0 -136
-18 -213 -97 -165 -167 -258 -582 -203 -904 70 -409 344 -835 774 -1206 149
-129 253 -204 354 -255 432 -216 954 -180 1532 107 356 176 689 422 1011 746
l141 141 61 184 c131 397 206 763 242 1184 13 155 13 645 0 800 -101 1176
-586 2239 -1404 3074 -819 834 -1852 1335 -3026 1466 -170 19 -726 28 -895 15z"/>
</g>
</svg>
