<svg id="Laag_1" data-name="Laag 1" xmlns="http://www.w3.org/2000/svg" viewBox="0 0 234.54 58.04"><defs><style>.cls-1{fill:none;}.cls-2{fill:#fff;}</style></defs><title>button4</title><rect class="cls-1" width="230.79" height="58.04" rx="5.67" ry="5.67"/><path class="cls-2" d="M236,33c-3.5,9.73-19.09,23.23-26.73,18.1-5.75-4.34-7.73-9.34-5.48-13.87,2.39-3.7,4.63,1.6,9.74,3.32,4.31,1,7.88-3.4,4.38-6.07-3.08-2-9.75-1.52-11.58-3.07a1.84,1.84,0,0,1,.2-2.46c3.29-3.14,9.59-1.59,11.46-2.91,3.17-2.39,1.85-9.35-4-7.84-2.1.56-4.06,3.95-5.26,4.66s-3.85,2.44-5.16,2.39a3.2,3.2,0,0,1-3.06-3.2,19.42,19.42,0,0,1,2.37-7.73c3.21-6.27-9.44-8-8.71-2.38.22,1.76,1.53,7.25,1.19,9.43s-1.6,4-3.56,3.94-5-2.53-5.71-3.66-3.75-4.52-7.65-2.87c-4.15,2-3.61,5.91-1.26,7.09s7.42.53,10.62,3.15.73,4.31-.23,5.11-6.08,1.53-7.65,2.23c-8.72,2.75-2.25,12.79,2.53,7.84,2.59-3.29,6.81-8.33,7.89-5.75,9.82,34.73,61.5,34.85,70.91-5.7C257.42,34.68,239.19,33.52,236,33Z"/></svg>